<?xml version="1.0" encoding="utf-8"?>
<!-- Generator: Adobe Illustrator 25.0.1, SVG Export Plug-In . SVG Version: 6.00 Build 0)  -->
<svg version="1.1" xmlns="http://www.w3.org/2000/svg" xmlns:xlink="http://www.w3.org/1999/xlink" x="0px" y="0px"
	 viewBox="0 0 1920 1080" style="enable-background:new 0 0 1920 1080;" xml:space="preserve">
<style type="text/css">
	.st0{fill:#666666;}
	.st1{fill:#999999;}
	.st2{fill:#B3B3B3;}
	.st3{fill:#808080;}
	.st4{fill:#CCCCCC;}
</style>
<g id="Layer_2">
	<rect x="0" class="st0" width="1920" height="1080"/>
</g>
<g id="Layer_1">
	<g>
		<polygon class="st1" points="228,18 228,219 153,219 153,828 41,828 41,18 		"/>
	</g>
	<g>
		<path class="st2" d="M290.41,575.01l-2.9,7.96L228,746.53l-6.42,17.65c-27.79,11.83-51.53,31.31-68.58,55.81V219h113.12
			c-36.65,45.01-58.62,102.44-58.62,165c0,73.99,30.73,140.8,80.12,188.36C288.54,573.26,289.47,574.15,290.41,575.01z"/>
	</g>
	<g>
		<path class="st3" d="M387.91,853.95L372.97,895L340,985.63V1029H176.69c-8.87-8.07-16.82-17.12-23.69-26.99v-49.35L198.36,828
			l23.22-63.82l6.42-17.65l59.51-163.54c0.14,62.12,13.81,121.06,38.24,174.02v0.01h0.01C341.98,792.25,362.98,824.83,387.91,853.95
			z"/>
	</g>
	<g>
		<path class="st3" d="M624.61,173.82c-0.85-0.64-1.71-1.26-2.58-1.89c0.77-0.16,1.55-0.32,2.33-0.46
			C624.45,172.25,624.53,173.03,624.61,173.82z"/>
	</g>
	<path class="st2" d="M287.62,572.36c-0.08,3.2-0.12,6.42-0.12,9.64c0,0.33,0,0.64,0.01,0.97l2.9-7.96
		C289.47,574.15,288.54,573.26,287.62,572.36z M624.36,171.47c-0.78,0.14-1.56,0.3-2.33,0.46c0.87,0.63,1.73,1.25,2.58,1.89
		C624.53,173.03,624.45,172.25,624.36,171.47z"/>
	<path class="st1" d="M1124.5,582c0,194.51-132.7,358.02-312.5,404.95V859.98c108.97-12.86,193.5-105.55,193.5-217.98
		S920.97,436.88,812,424.02c-8.53-1-17.2-1.52-26-1.52c-20.68,0-40.69,2.86-59.66,8.21c2.73-15.16,4.16-30.77,4.16-46.71
		c0-40.87-9.38-79.54-26.1-114c-13.82-28.5-32.67-54.12-55.4-75.69c-5.13-4.88-10.47-9.54-15.99-13.99l4.06-11.17
		c3.96-0.66,7.94-1.26,11.93-1.79c18.64-2.55,37.67-3.86,57-3.86C937.13,163.5,1124.5,350.87,1124.5,582z"/>
	<path class="st2" d="M812,859.98v126.97c-33.85,8.85-69.38,13.55-106,13.55c-27.71,0-54.8-2.69-81-7.84
		c-38.47-7.54-75.05-20.35-108.96-37.66H649V813.5c37.55,30.04,85.17,48,137,48C794.8,861.5,803.47,860.98,812,859.98z"/>
	<path class="st1" d="M649,813.5V955H516.04c-18.89-9.64-36.95-20.67-54.04-32.96c-6.31-4.53-12.49-9.24-18.53-14.11
		c-0.08-4.35-0.34-8.67-0.76-12.93c-3.33-33.43-16.99-63.83-37.74-87.95L462,650.32l1.78-4.88c1.74,0.04,3.48,0.06,5.22,0.06
		c34.68,0,67.77-6.75,98.05-19.01c-0.37,5.12-0.55,10.3-0.55,15.51C566.5,711.41,598.71,773.29,649,813.5z"/>
	<path class="st1" d="M363.41,341.59c-8.44,11.99-16.26,24.45-23.41,37.32c-31.99,57.51-50.81,123.35-52.38,193.45
		C238.23,524.8,207.5,457.99,207.5,384c0-62.56,21.97-119.99,58.62-165h13.55c6.73,42.42,28.79,79.74,60.33,106.09
		C347.32,331.2,355.15,336.73,363.41,341.59z"/>
	<path class="st2" d="M279.67,219h-13.55c3.82-4.69,7.8-9.25,11.93-13.66C278.41,209.95,278.95,214.5,279.67,219z"/>
	<path class="st3" d="M591.18,295.28L485,587.11l-21.22,58.33c-66.99-1.3-127.8-27.81-173.37-70.43c-0.94-0.86-1.87-1.75-2.79-2.65
		c1.57-70.1,20.39-135.94,52.38-193.45c7.15-12.87,14.97-25.33,23.41-37.32c25.84,15.19,55.95,23.91,88.09,23.91
		C508.71,365.5,559.46,337.89,591.18,295.28z"/>
	<path class="st4" d="M1005.5,642c0,112.43-84.53,205.12-193.5,217.98c-8.53,1-17.2,1.52-26,1.52c-51.83,0-99.45-17.96-137-48
		c-50.29-40.21-82.5-102.09-82.5-171.5c0-5.21,0.18-10.39,0.55-15.51c4.39-63.07,35.44-118.8,81.95-155.99
		c22.56-18.06,48.77-31.75,77.34-39.79c18.97-5.35,38.98-8.21,59.66-8.21c8.8,0,17.47,0.52,26,1.52
		C920.97,436.88,1005.5,529.57,1005.5,642z"/>
	<path class="st2" d="M730.5,384c0,15.94-1.43,31.55-4.16,46.71c-28.57,8.04-54.78,21.73-77.34,39.79
		c-46.51,37.19-77.56,92.92-81.95,155.99c-30.28,12.26-63.37,19.01-98.05,19.01c-1.74,0-3.48-0.02-5.22-0.06L485,587.11
		l106.18-291.83c0.01,0,0.01-0.01,0.01-0.01l34.01-93.48v-0.01l7.81-21.46c5.52,4.45,10.86,9.11,15.99,13.99
		c22.73,21.57,41.58,47.19,55.4,75.69C721.12,304.46,730.5,343.13,730.5,384z"/>
	<path class="st4" d="M622.03,171.93c-106.49,21.69-198.28,83.82-258.62,169.66c-8.26-4.86-16.09-10.39-23.41-16.5
		c-31.54-26.35-53.6-63.67-60.33-106.09c-0.72-4.5-1.26-9.05-1.62-13.66c6.3-6.74,12.96-13.14,19.95-19.18
		c45.85-39.67,105.62-63.66,171-63.66c5.37,0,10.71,0.16,16,0.48c31.98,1.93,62.41,9.61,90.26,22.02
		C591.83,152.37,607.49,161.42,622.03,171.93z"/>
	<path class="st2" d="M637.07,169.15l-4.06,11.17l-7.81,21.46v0.01l-34.01,93.48c0,0,0,0.01-0.01,0.01
		c-31.72,42.61-82.47,70.22-139.68,70.22c-32.14,0-62.25-8.72-88.09-23.91c60.34-85.84,152.13-147.97,258.62-169.66
		c0.87,0.63,1.73,1.25,2.58,1.89c-0.08-0.79-0.16-1.57-0.25-2.35C628.57,170.63,632.81,169.86,637.07,169.15z"/>
	<path class="st3" d="M624.36,171.47c-0.78,0.14-1.56,0.3-2.33,0.46c-14.54-10.51-30.2-19.56-46.77-26.93
		c-27.85-12.41-58.28-20.09-90.26-22.02V85H313.89c31.82-41.07,81.63-67.5,137.61-67.5c80,0,147.38,53.98,167.71,127.5
		C621.59,153.58,623.32,162.42,624.36,171.47z"/>
	<path class="st2" d="M485,85v37.98c-5.29-0.32-10.63-0.48-16-0.48c-65.38,0-125.15,23.99-171,63.66
		c-6.99,6.04-13.65,12.44-19.95,19.18c-0.37-4.57-0.55-9.18-0.55-13.84c0-29.65,7.42-57.57,20.5-82c4.61-8.63,9.94-16.82,15.89-24.5
		H485z"/>
	<path class="st2" d="M624.61,173.82c-0.85-0.64-1.71-1.26-2.58-1.89c0.77-0.16,1.55-0.32,2.33-0.46
		C624.45,172.25,624.53,173.03,624.61,173.82z"/>
	<path class="st4" d="M221.58,764.18L198.36,828L153,952.66v49.35c-17.97-25.81-28.5-57.18-28.5-91.01c0-30.4,8.51-58.82,23.27-83
		H153v-8.01C170.05,795.49,193.79,776.01,221.58,764.18z"/>
	<path class="st2" d="M153,819.99V828h-5.23C149.44,825.27,151.18,822.6,153,819.99z"/>
	<path class="st1" d="M443.5,911c0,88.09-71.41,159.5-159.5,159.5c-41.32,0-78.98-15.71-107.31-41.5H340v-43.37L372.97,895
		l14.94-41.05l17.06-46.9c20.75,24.12,34.41,54.52,37.74,87.95c0.42,4.26,0.68,8.58,0.76,12.93
		C443.49,908.95,443.5,909.97,443.5,911z"/>
	<path class="st2" d="M463.78,645.44l-1.78,4.88l-57.03,156.73l-17.06,46.9c-24.93-29.12-45.93-61.7-62.15-96.93h-0.01v-0.01
		c-24.43-52.96-38.1-111.9-38.24-174.02v-0.02l2.9-7.96C335.98,617.63,396.79,644.14,463.78,645.44z"/>
	<path class="st2" d="M387.91,853.95L372.97,895L340,985.63V1029H176.69c-8.87-8.07-16.82-17.12-23.69-26.99v-49.35L198.36,828
		l23.22-63.82c19.17-8.16,40.27-12.68,62.42-12.68c14.44,0,28.44,1.92,41.75,5.51v0.01h0.01
		C341.98,792.25,362.98,824.83,387.91,853.95z"/>
</g>
</svg>
